<svg xmlns="http://www.w3.org/2000/svg" xmlns:xlink="http://www.w3.org/1999/xlink" width="120" height="108" version="1.1" viewBox="0 0 120 108"><title>Mark Copy</title><desc>Created with Sketch.</desc><g id="Page-1" fill="none" fill-rule="evenodd" stroke="none" stroke-width="1"><g id="1" fill="#000" transform="translate(-900.000000, -275.000000)"><g id="Group-Copy-2" transform="translate(900.000000, 275.000000)"><g id="Group"><g id="Mark-Copy"><polygon id="Line-Copy-3" points="35 74.052 35 76 39 76 39 74.052 39 59.948 39 58 35 58 35 59.948" transform="translate(37.000000, 67.000000) rotate(-300.000000) translate(-37.000000, -67.000000)"/><polygon id="Line" points="81 74.052 81 76 85 76 85 74.052 85 59.948 85 58 81 58 81 59.948" transform="translate(83.000000, 67.000000) rotate(-60.000000) translate(-83.000000, -67.000000)"/><path id="Oval-Copy-2" d="M80,54 C80,42.954305 71.045695,34 60,34 C48.954305,34 40,42.954305 40,54 C40,65.045695 48.954305,74 60,74 C71.045695,74 80,65.045695 80,54 Z M44.2328042,54 C44.2328042,45.2920182 51.2920182,38.2328042 60,38.2328042 C68.7079818,38.2328042 75.7671958,45.2920182 75.7671958,54 C75.7671958,62.7079818 68.7079818,69.7671958 60,69.7671958 C51.2920182,69.7671958 44.2328042,62.7079818 44.2328042,54 Z"/><circle id="Oval-Copy-6" cx="24" cy="75" r="3"/><circle id="Oval-Copy-12" cx="60" cy="96" r="3"/><circle id="Oval-Copy-13" cx="60" cy="12" r="3"/><circle id="Oval-Copy-14" cx="96" cy="33" r="3"/><circle id="Oval-Copy-16" cx="24" cy="33" r="3"/><circle id="Oval-Copy-15" cx="96" cy="75" r="3"/><ellipse id="Oval-Copy-6" cx="60" cy="54" rx="3" ry="3"/><polygon id="Line" points="2 52 0 52 0 56 2 56 40 56 42 56 42 52 40 52"/><polygon id="Line" points="80 52 78 52 78 56 80 56 118 56 120 56 120 52 118 52"/><polygon id="Line-Copy-4" points="72.83 70.389 71.823 68.66 68.367 70.674 69.374 72.402 88.502 105.237 89.509 106.965 92.965 104.951 91.958 103.223"/><polygon id="Line-Copy-4" points="32.581 2.14 31.575 .412 28.118 2.425 29.125 4.154 48.253 36.988 49.26 38.716 52.716 36.703 51.71 34.975"/><polygon id="Line-Copy-7" points="90.71 4.154 91.716 2.425 88.26 .412 87.253 2.14 68.125 34.975 67.118 36.703 70.575 38.716 71.581 36.988"/><polygon id="Line-Copy-7" points="50.827 72.597 51.833 70.869 48.377 68.855 47.37 70.583 28.242 103.418 27.235 105.146 30.692 107.16 31.698 105.432"/><polygon id="Line" points="58 87.017 58 89 62 89 62 87.017 62 72.983 62 71 58 71 58 72.983"/><polygon id="Line" points="58 35.052 58 37 62 37 62 35.052 62 20.948 62 19 58 19 58 20.948"/><polygon id="Line-Copy-2" points="35 48.052 35 50 39 50 39 48.052 39 33.948 39 32 35 32 35 33.948" transform="translate(37.000000, 41.000000) rotate(-60.000000) translate(-37.000000, -41.000000)"/><polygon id="Line-Copy" points="81 48.052 81 50 85 50 85 48.052 85 33.948 85 32 81 32 81 33.948" transform="translate(83.000000, 41.000000) rotate(-300.000000) translate(-83.000000, -41.000000)"/></g></g></g></g></g></svg>